<?xml version="1.0" encoding="utf-8"?>
<!--Designed by Vexels.com - 2017 All Rights Reserved - https://vexels.com/terms-and-conditions/-->
<svg version="1.1" id="Layer_1" xmlns="http://www.w3.org/2000/svg" xmlns:xlink="http://www.w3.org/1999/xlink" x="0px" y="0px"
	 viewBox="0 0 1200 1200" enable-background="new 0 0 1200 1200" xml:space="preserve">
<g>
	<path fill="#009BDB" d="M782.631,397.285C638.01,187.353,612.445,67.707,612.445,67.707l-6.768-14.23
		c-0.883-2.659-3.381-3.759-5.676-3.416c-2.296-0.343-4.794,0.757-5.677,3.416l-6.768,14.23c0,0-25.565,119.646-170.186,329.579
		c-112.056,166.39-206.253,316.82-157.347,493.305C308.927,1067.074,455.643,1150,593.853,1150c2.044,0,4.098-0.075,6.147-0.115
		c2.049,0.04,4.102,0.115,6.147,0.115c138.21,0,284.926-82.926,333.831-259.41C988.883,714.106,894.686,563.675,782.631,397.285z"/>
	<linearGradient id="SVGID_1_" gradientUnits="userSpaceOnUse" x1="600.0128" y1="1131.0364" x2="600.0128" y2="374.3433">
		<stop  offset="0" style="stop-color:#B2D7F2"/>
		<stop  offset="0.2452" style="stop-color:#99CAEE"/>
		<stop  offset="0.5739" style="stop-color:#7BBBE8"/>
		<stop  offset="0.8371" style="stop-color:#64B2E5"/>
		<stop  offset="1" style="stop-color:#5AAFE3"/>
	</linearGradient>
	<path fill="url(#SVGID_1_)" d="M765.424,442.416c-130.985-190.139-154.14-298.504-154.14-298.504l-6.13-12.888
		c-0.799-2.409-3.062-3.405-5.141-3.094c-2.079-0.311-4.342,0.685-5.141,3.094l-6.13,12.888c0,0-23.155,108.365-154.14,298.504
		C333.111,593.118,247.795,729.365,292.09,889.21c44.294,159.844,177.177,234.952,302.356,234.952c1.852,0,3.711-0.068,5.567-0.104
		c1.856,0.036,3.715,0.104,5.567,0.104c125.179,0,258.062-75.108,302.356-234.952C952.23,729.365,866.915,593.118,765.424,442.416z"
		/>
	<path fill="#4094D0" d="M777.68,1061.378"/>
	<linearGradient id="SVGID_2_" gradientUnits="userSpaceOnUse" x1="473.7087" y1="1033.5458" x2="481.0461" y2="365.8417">
		<stop  offset="0" style="stop-color:#D8EBF8"/>
		<stop  offset="0.1378" style="stop-color:#C2DFF5"/>
		<stop  offset="0.4268" style="stop-color:#99CAEE"/>
		<stop  offset="0.6773" style="stop-color:#7BBBE8"/>
		<stop  offset="0.8767" style="stop-color:#64B2E5"/>
		<stop  offset="1" style="stop-color:#5AAFE3"/>
	</linearGradient>
	<path fill="url(#SVGID_2_)" d="M545.215,252.048c-30.895,62.779-78.674,145.296-135.108,228.413
		c-94.032,141.82-162.687,268.704-114.877,419.128c47.809,150.423,179.101,221.105,300.659,221.105c1.798,0,3.602-0.064,5.403-0.098
		c1.804,0.034,3.611,0.098,5.409,0.098c20.938,0,42.023-2.15,62.792-6.39c-109.733-2.764-225.247-62.256-281.92-191.645
		c-63.62-145.248-22.162-282.092,55.755-433.111c38.651-72.933,76.613-145.45,99.018-203.775
		C542.345,285.772,574.633,193.212,545.215,252.048z"/>
	
		<ellipse transform="matrix(0.9911 0.1331 -0.1331 0.9911 120.0132 -96.1144)" fill="#C8E2F6" cx="778.75" cy="849.402" rx="71.549" ry="104.071"/>
	
		<ellipse transform="matrix(0.9804 -0.1972 0.1972 0.9804 -110.0346 162.1415)" opacity="0.35" fill="#BCDCF4" cx="759.001" cy="633.491" rx="44.717" ry="49.747"/>
</g>
</svg>
